<svg width="77" height="76" viewBox="0 0 77 76" fill="none" xmlns="http://www.w3.org/2000/svg">
<mask id="mask0_461_3296" style="mask-type:alpha" maskUnits="userSpaceOnUse" x="0" y="0" width="77" height="76">
<rect x="0.784363" y="0.207275" width="75.4304" height="75.4304" fill="#D9D9D9"/>
</mask>
<g mask="url(#mask0_461_3296)">
<path d="M13.3561 63.0658C11.6275 63.0658 10.1477 62.4503 8.91669 61.2193C7.68571 59.9883 7.07022 58.5085 7.07022 56.7799V19.0647C7.07022 17.3361 7.68571 15.8563 8.91669 14.6253C10.1477 13.3943 11.6275 12.7788 13.3561 12.7788H63.643C65.3716 12.7788 66.8514 13.3943 68.0824 14.6253C69.3134 15.8563 69.9289 17.3361 69.9289 19.0647V56.7799C69.9289 58.5085 69.3134 59.9883 68.0824 61.2193C66.8514 62.4503 65.3716 63.0658 63.643 63.0658H13.3561ZM13.3561 37.9223H63.643V25.3505H13.3561V37.9223Z" fill="#053C4D"/>
</g>
</svg>
