<svg width="76" height="76" viewBox="0 0 76 76" fill="none" xmlns="http://www.w3.org/2000/svg">
<mask id="mask0_461_3310" style="mask-type:alpha" maskUnits="userSpaceOnUse" x="0" y="0" width="76" height="76">
<rect x="0.422913" y="0.418701" width="75.4304" height="75.4304" fill="#D9D9D9"/>
</mask>
<g mask="url(#mask0_461_3310)">
<path d="M25.5664 34.991C26.4569 34.991 27.2033 34.6898 27.8057 34.0874C28.4081 33.485 28.7093 32.7386 28.7093 31.8481C28.7093 30.9576 28.4081 30.2111 27.8057 29.6087C27.2033 29.0063 26.4569 28.7051 25.5664 28.7051C24.6759 28.7051 23.9294 29.0063 23.327 29.6087C22.7247 30.2111 22.4235 30.9576 22.4235 31.8481C22.4235 32.7386 22.7247 33.485 23.327 34.0874C23.9294 34.6898 24.6759 34.991 25.5664 34.991ZM38.1381 34.991C39.0286 34.991 39.7751 34.6898 40.3775 34.0874C40.9799 33.485 41.2811 32.7386 41.2811 31.8481C41.2811 30.9576 40.9799 30.2111 40.3775 29.6087C39.7751 29.0063 39.0286 28.7051 38.1381 28.7051C37.2476 28.7051 36.5012 29.0063 35.8988 29.6087C35.2964 30.2111 34.9952 30.9576 34.9952 31.8481C34.9952 32.7386 35.2964 33.485 35.8988 34.0874C36.5012 34.6898 37.2476 34.991 38.1381 34.991ZM50.7099 34.991C51.6004 34.991 52.3468 34.6898 52.9492 34.0874C53.5516 33.485 53.8528 32.7386 53.8528 31.8481C53.8528 30.9576 53.5516 30.2111 52.9492 29.6087C52.3468 29.0063 51.6004 28.7051 50.7099 28.7051C49.8194 28.7051 49.0729 29.0063 48.4705 29.6087C47.8681 30.2111 47.5669 30.9576 47.5669 31.8481C47.5669 32.7386 47.8681 33.485 48.4705 34.0874C49.0729 34.6898 49.8194 34.991 50.7099 34.991ZM6.70879 69.5633V12.9905C6.70879 11.2618 7.32428 9.78205 8.55526 8.55106C9.78624 7.32008 11.266 6.70459 12.9947 6.70459H63.2816C65.0102 6.70459 66.49 7.32008 67.721 8.55106C68.952 9.78205 69.5675 11.2618 69.5675 12.9905V50.7057C69.5675 52.4343 68.952 53.9141 67.721 55.1451C66.49 56.376 65.0102 56.9915 63.2816 56.9915H19.2805L6.70879 69.5633Z" fill="#053C4D"/>
</g>
</svg>
