<svg width="77" height="77" viewBox="0 0 77 77" fill="none" xmlns="http://www.w3.org/2000/svg">
<mask id="mask0_461_3306" style="mask-type:alpha" maskUnits="userSpaceOnUse" x="0" y="0" width="77" height="77">
<rect x="0.823608" y="0.866211" width="75.4304" height="75.4304" fill="#D9D9D9"/>
</mask>
<g mask="url(#mask0_461_3306)">
<path d="M38.696 60.582L47.6534 51.7032L38.696 42.8244L35.3959 46.1245L38.7746 49.5031C37.3079 49.5555 35.8804 49.3198 34.4923 48.796C33.1042 48.2722 31.8601 47.4602 30.7601 46.3602C29.7124 45.3126 28.9136 44.1078 28.3636 42.7458C27.8136 41.3839 27.5386 40.022 27.5386 38.66C27.5386 37.7695 27.6564 36.879 27.8922 35.9885C28.1279 35.098 28.4553 34.2337 28.8743 33.3956L25.4171 29.9384C24.5266 31.2479 23.8718 32.6361 23.4528 34.1028C23.0337 35.5695 22.8242 37.0624 22.8242 38.5814C22.8242 40.572 23.217 42.5363 24.0028 44.4744C24.7885 46.4126 25.9409 48.1412 27.46 49.6603C28.9791 51.1794 30.6815 52.3187 32.5673 53.0782C34.453 53.8378 36.3912 54.2437 38.3817 54.2961L35.3959 57.2819L38.696 60.582ZM51.6606 47.2245C52.5511 45.915 53.2059 44.5268 53.6249 43.0601C54.044 41.5934 54.2535 40.1005 54.2535 38.5814C54.2535 36.5909 53.8737 34.6135 53.1142 32.6492C52.3547 30.6848 51.2153 28.9431 49.6963 27.424C48.1772 25.9049 46.4617 24.7787 44.5497 24.0454C42.6378 23.312 40.6865 22.9453 38.696 22.9453L41.6818 19.881L38.3817 16.5809L29.4243 25.4597L38.3817 34.3385L41.6818 31.0384L38.2246 27.5812C39.6389 27.5812 41.0794 27.8562 42.5461 28.4062C44.0128 28.9562 45.27 29.755 46.3176 30.8027C47.3653 31.8503 48.1641 33.0551 48.7141 34.4171C49.2641 35.779 49.5391 37.1409 49.5391 38.5029C49.5391 39.3934 49.4213 40.2839 49.1855 41.1744C48.9498 42.0649 48.6224 42.9292 48.2034 43.7673L51.6606 47.2245ZM38.5388 70.0108C34.1911 70.0108 30.1053 69.1858 26.2814 67.5357C22.4575 65.8857 19.1312 63.6463 16.3026 60.8177C13.4739 57.9891 11.2346 54.6628 9.58457 50.8389C7.93452 47.015 7.1095 42.9292 7.1095 38.5814C7.1095 34.2337 7.93452 30.1479 9.58457 26.324C11.2346 22.5001 13.4739 19.1738 16.3026 16.3452C19.1312 13.5165 22.4575 11.2772 26.2814 9.62716C30.1053 7.97712 34.1911 7.1521 38.5388 7.1521C42.8866 7.1521 46.9724 7.97712 50.7963 9.62716C54.6202 11.2772 57.9465 13.5165 60.7751 16.3452C63.6037 19.1738 65.8431 22.5001 67.4931 26.324C69.1432 30.1479 69.9682 34.2337 69.9682 38.5814C69.9682 42.9292 69.1432 47.015 67.4931 50.8389C65.8431 54.6628 63.6037 57.9891 60.7751 60.8177C57.9465 63.6463 54.6202 65.8857 50.7963 67.5357C46.9724 69.1858 42.8866 70.0108 38.5388 70.0108Z" fill="#053C4D"/>
</g>
</svg>
