<?xml version="1.0" encoding="UTF-8" standalone="no"?>
<svg
   xmlns:dc="http://purl.org/dc/elements/1.1/"
   xmlns:cc="http://creativecommons.org/ns#"
   xmlns:rdf="http://www.w3.org/1999/02/22-rdf-syntax-ns#"
   xmlns:svg="http://www.w3.org/2000/svg"
   xmlns="http://www.w3.org/2000/svg"
   xmlns:sodipodi="http://sodipodi.sourceforge.net/DTD/sodipodi-0.dtd"
   xmlns:inkscape="http://www.inkscape.org/namespaces/inkscape"
   width="280.45184mm"
   height="120.11501mm"
   viewBox="0 0 280.45184 120.11501"
   version="1.1"
   id="svg8"
   inkscape:version="1.0.2 (e86c870879, 2021-01-15)"
   sodipodi:docname="logo.svg">
  <defs
     id="defs2" />
  <sodipodi:namedview
     id="base"
     pagecolor="#ffffff"
     bordercolor="#666666"
     borderopacity="1.0"
     inkscape:pageopacity="0.0"
     inkscape:pageshadow="2"
     inkscape:zoom="0.49497475"
     inkscape:cx="673.78656"
     inkscape:cy="289.43668"
     inkscape:document-units="mm"
     inkscape:current-layer="g847"
     inkscape:document-rotation="0"
     showgrid="false"
     inkscape:window-width="1366"
     inkscape:window-height="703"
     inkscape:window-x="0"
     inkscape:window-y="394"
     inkscape:window-maximized="1" />
  <metadata
     id="metadata5">
    <rdf:RDF>
      <cc:Work
         rdf:about="">
        <dc:format>image/svg+xml</dc:format>
        <dc:type
           rdf:resource="http://purl.org/dc/dcmitype/StillImage" />
        <dc:title />
      </cc:Work>
    </rdf:RDF>
  </metadata>
  <g
     inkscape:label="Layer 1"
     inkscape:groupmode="layer"
     id="layer1"
     transform="translate(34.649489,-68.878762)">
    <g
       id="g847"
       transform="translate(-15.983981,12.016109)">
      <path
         style="fill:#ff9ccd;stroke-width:0.264583;fill-opacity:1"
         d="m 163.09673,109.80208 c 0,-1.74625 -0.10449,-3.175 -0.23219,-3.175 -0.1277,0 -0.38763,0.1873 -0.57761,0.41622 -0.18999,0.22892 -0.78023,0.63803 -1.31165,0.90914 -2.73579,1.3957 -6.02055,0.3773 -7.46038,-2.31298 -1.49632,-2.79584 -1.12414,-5.727133 0.9964,-7.847676 2.15642,-2.156415 5.19003,-2.325439 7.37082,-0.410683 0.48817,0.428625 0.96117,0.779317 1.0511,0.779317 0.0899,0 0.16351,-0.47625 0.16351,-1.058334 0,-0.881943 0.0882,-1.058333 0.52916,-1.058333 0.51815,0 0.52917,0.17639 0.52917,8.466669 0,8.29028 -0.011,8.46667 -0.52917,8.46667 -0.49976,0 -0.52916,-0.17639 -0.52916,-3.17501 z m -2.76515,-2.80201 c 2.91414,-1.38285 3.56395,-5.83537 1.21208,-8.305194 -2.17979,-2.289119 -5.37307,-1.836904 -7.11068,1.00698 -0.66037,1.080804 -0.81499,3.404144 -0.31446,4.725194 0.92982,2.45407 3.88484,3.67783 6.21306,2.57302 z M 101.7134,99.747918 c 0,-8.461865 0.0294,-9.029002 0.46302,-8.945801 0.40981,0.07862 0.47148,0.506518 0.53663,3.723566 0.0405,1.999104 0.14383,3.634735 0.22965,3.634735 0.0858,0 0.55546,-0.350692 1.04364,-0.779317 1.54437,-1.355979 3.69489,-1.679549 5.55321,-0.835544 2.31199,1.050049 3.53567,3.062687 3.54512,5.830803 0.0162,4.75023 -4.30379,7.59687 -8.34784,5.50077 -0.44716,-0.23177 -0.96775,-0.60785 -1.15687,-0.83572 -0.53898,-0.64943 -0.76962,-0.49476 -0.8584,0.57566 -0.0574,0.69187 -0.22155,1.01641 -0.54514,1.07774 -0.43365,0.0822 -0.46302,-0.48544 -0.46302,-8.946892 z m 7.8407,7.165292 c 1.46447,-0.89299 2.30239,-2.27008 2.42666,-3.98812 0.13615,-1.88223 -0.2407,-3.098813 -1.29344,-4.175577 -1.20236,-1.2298 -2.80043,-1.762787 -4.17536,-1.392558 -2.09248,0.563446 -3.74023,2.788515 -3.74023,5.050665 0,1.03492 0.71958,2.91384 1.398,3.65035 1.27633,1.38562 3.84537,1.79368 5.38437,0.85524 z m 9.47782,1.53211 c -2.45994,-0.55253 -4.35152,-3.24432 -4.34555,-6.18386 0.01,-4.886781 4.70111,-7.715081 8.67795,-5.231919 1.68706,1.053415 2.69074,3.021809 2.69074,5.277029 0,1.9508 -0.39046,3.04903 -1.55601,4.37652 -1.37628,1.5675 -3.4123,2.22377 -5.46713,1.76223 z m 3.26597,-1.39622 c 0.98889,-0.51452 1.80547,-1.44189 2.28933,-2.59994 1.55172,-3.71377 -1.63253,-8.028772 -5.21329,-7.064572 -4.22401,1.137407 -4.93675,7.188902 -1.12408,9.543972 0.95481,0.58978 3.02755,0.6515 4.04804,0.12054 z m 9.7103,1.44725 c -1.43083,-0.34833 -2.50378,-1.07213 -3.24228,-2.18717 -0.72106,-1.08873 -0.72647,-1.13059 -0.72647,-5.61502 0,-4.484015 0.004,-4.518755 0.59531,-4.602665 l 0.59531,-0.08455 0.001,4.450175 c 7.9e-4,3.99679 0.0554,4.5394 0.53496,5.32599 0.71104,1.16625 2.09881,1.72611 3.90694,1.57617 1.19956,-0.0995 1.56445,-0.26593 2.38906,-1.08981 l 0.97319,-0.97241 0.13229,-4.55741 c 0.11811,-4.06868 0.18195,-4.566919 0.59531,-4.646056 0.4264,-0.08164 0.46302,0.269711 0.46302,4.441816 0,3.6505 -0.0832,4.69492 -0.42845,5.37721 -0.59809,1.182 -1.59967,1.96071 -3.1253,2.42988 -1.41674,0.43568 -1.48912,0.43986 -2.66395,0.15385 z m 12.91075,-0.0318 c -2.67552,-0.52479 -2.82472,-0.85424 -2.98888,-6.59995 l -0.13229,-4.630204 -1.1408,-0.08216 c -0.9041,-0.06511 -1.12315,-0.174903 -1.05577,-0.529166 0.0574,-0.30162 0.42842,-0.490041 1.1408,-0.579303 l 1.05577,-0.132292 0.08,-1.389062 c 0.0675,-1.172877 0.16018,-1.389063 0.59532,-1.389063 0.44826,0 0.51533,0.189405 0.51533,1.455209 v 1.455208 h 1.85209 c 1.67569,0 1.85208,0.0504 1.85208,0.529167 0,0.478768 -0.17639,0.529166 -1.85208,0.529166 h -1.85209 v 4.21611 c 0,2.31886 0.10905,4.50293 0.24233,4.85348 0.25745,0.67715 1.23168,1.17837 2.5358,1.30462 0.57913,0.0561 0.79375,0.21395 0.79375,0.58396 0,0.62464 -0.22957,0.68119 -1.64133,0.40428 z m 4.06668,0.10283 c -0.097,-0.097 -0.17639,-2.95451 -0.17639,-6.35 0,-5.997219 0.0151,-6.173609 0.52916,-6.173609 0.51447,0 0.52917,0.17639 0.52917,6.349999 0,5.11528 -0.0686,6.35 -0.35278,6.35 -0.19403,0 -0.43215,-0.0794 -0.52916,-0.17639 z m 22.07528,-0.11306 c -1.58162,-0.30655 -2.83992,-1.21526 -3.47018,-2.50606 -0.45996,-0.94203 -0.52524,-1.62437 -0.52524,-5.49011 0,-4.237989 0.0211,-4.414379 0.52916,-4.414379 0.50728,0 0.52917,0.17639 0.52917,4.263459 0,3.8469 0.0545,4.36047 0.5581,5.25646 1.01539,1.80664 3.8392,2.45307 5.69787,1.30435 1.42582,-0.8812 1.53735,-1.29206 1.68153,-6.19406 0.12581,-4.277432 0.15823,-4.497917 0.66146,-4.497917 0.50376,0 0.53267,0.200699 0.6021,4.179847 0.0635,3.6384 0.008,4.32758 -0.43159,5.32036 -0.73781,1.66795 -1.92131,2.47917 -4.27155,2.92787 -0.21828,0.0417 -0.92065,-0.0257 -1.56083,-0.14982 z m 13.59937,0.14726 c -0.14552,-0.0435 -0.71817,-0.15507 -1.27256,-0.24797 -1.29288,-0.21665 -3.0077,-1.74806 -3.65912,-3.26776 -0.30644,-0.71491 -0.49228,-1.77799 -0.49228,-2.81609 0,-3.340467 2.14913,-5.818025 5.321,-6.13415 2.98886,-0.297886 5.73696,2.14892 6.00191,5.34389 l 0.1197,1.44344 h -5.19214 c -2.97212,0 -5.19214,0.10375 -5.19214,0.24264 0,0.57463 1.04631,2.58315 1.62176,3.11317 1.78442,1.64355 5.0984,1.48551 6.64893,-0.31709 0.57831,-0.67232 1.5189,-0.71538 1.5189,-0.0695 0,0.45439 -1.90011,2.03396 -2.75779,2.29256 -1.05357,0.31766 -2.3302,0.51728 -2.66617,0.4169 z m 4.79703,-7.12843 c 0.25105,-0.65424 -0.93008,-2.721538 -1.896,-3.318512 -2.06273,-1.274837 -3.85163,-1.182563 -5.52296,0.284885 -0.90819,0.797406 -1.87973,2.726337 -1.60063,3.177937 0.0846,0.13695 2.09596,0.24714 4.51106,0.24714 3.60315,0 4.38434,-0.0678 4.50853,-0.39145 z m -40.64807,-7.546066 c 0,-0.352777 0.17639,-0.529167 0.52916,-0.529167 0.35278,0 0.52917,0.17639 0.52917,0.529167 0,0.352777 -0.17639,0.529167 -0.52917,0.529167 -0.35277,0 -0.52916,-0.17639 -0.52916,-0.529167 z M 42.576696,83.341179 c -0.404773,-0.447268 -0.42971,-0.627976 -0.156988,-1.137561 0.720516,-1.346298 3.144456,-4.33097 5.291974,-6.516166 2.196023,-2.234555 7.450838,-6.366619 8.096532,-6.366619 0.17316,0 0.541648,0.253222 0.818862,0.562713 0.499528,0.557689 0.497126,0.56773 -0.269179,1.12448 -5.458732,3.965982 -8.25977,6.59729 -11.166724,10.490065 -0.975378,1.306155 -1.854382,2.374826 -1.953339,2.374826 -0.09896,0 -0.39647,-0.239281 -0.661138,-0.531738 z M 40.57462,81.333045 c -0.352787,-0.37828 -1.795555,-1.457637 -3.206149,-2.398569 -2.156513,-1.438498 -2.648273,-1.666074 -3.089688,-1.429835 -1.087104,0.5818 -2.185003,-0.767512 -1.206616,-1.482924 0.651346,-0.476276 0.792078,-0.449609 1.492501,0.282827 0.458888,0.479861 1.201288,0.746442 3.057832,1.098015 1.348497,0.255363 2.521281,0.394827 2.606188,0.30992 0.08491,-0.08491 -0.533241,-1.114793 -1.373663,-2.288638 -1.299102,-1.814497 -1.641266,-2.134262 -2.283765,-2.134262 -0.856207,0 -1.141791,-0.472109 -0.890712,-1.472483 0.137536,-0.547989 0.306253,-0.661712 0.882301,-0.594722 0.439722,0.05114 0.835078,0.330504 1.033275,0.730131 0.247959,0.499962 0.791369,0.784593 2.38738,1.250476 1.968995,0.574757 2.992393,0.747371 2.992393,0.504719 0,-0.06107 -0.653804,-1.481407 -1.452896,-3.156294 -1.119071,-2.345558 -1.584002,-3.064745 -2.023499,-3.1301 -1.427393,-0.212259 -1.259959,-1.936935 0.188037,-1.936935 0.616505,0 0.797943,0.149698 0.989044,0.816025 0.202533,0.706189 0.621196,1.007054 3.11042,2.235248 1.582013,0.780571 2.954285,1.341321 3.049495,1.24611 0.09521,-0.09521 -0.09514,-1.258742 -0.423002,-2.585627 -0.483508,-1.95679 -0.707737,-2.454958 -1.187022,-2.637182 -0.739862,-0.281297 -1.008496,-0.942692 -0.65282,-1.607283 0.566254,-1.058053 2.39041,-0.235042 1.960751,0.884637 -0.09358,0.243864 0.555143,0.900677 1.858475,1.881643 1.101233,0.828855 2.158082,1.56681 2.348553,1.639901 0.272365,0.104516 0.243501,-0.448548 -0.135162,-2.590083 -0.368522,-2.084184 -0.606216,-2.808129 -1.013217,-3.085973 -0.896622,-0.612093 -0.517239,-1.885958 0.561679,-1.885958 0.543896,0 0.840039,0.768101 0.628885,1.631145 -0.184197,0.75288 1.62455,3.948857 3.323331,5.872174 0.964062,1.091483 1.071557,1.321406 0.711898,1.52268 -3.062369,1.713788 -9.602832,7.87327 -11.975242,11.277687 -0.727604,1.044115 -1.39146,1.903548 -1.475235,1.909853 -0.08377,0.0063 -0.44096,-0.29804 -0.79375,-0.67632 z"
         id="path851"
         sodipodi:nodetypes="sssssssssssssssssssssssssssssssssssssscssssssssscsscccssccsssssccsscsssccsscssscsssssssssssscsssscsssscscsssssscssssssssssssssssssssssssssssssssssssssssssssssssssssssssssssssss" />
      <path
         style="fill:#000000;stroke-width:0.264583"
         d="m 72.793123,176.68543 c -0.700093,-0.52013 -0.964758,-2.06149 -0.967119,-5.6323 -0.0026,-3.89347 -0.520784,-19.00411 -0.690543,-20.13577 l -0.123185,-0.82118 -3.104126,-0.15747 c -3.985099,-0.20215 -11.280346,-1.70184 -15.227242,-3.13027 -5.407326,-1.95698 -12.407098,-4.21585 -13.549087,-4.37238 -0.948425,-0.13 -1.151451,-0.076 -1.281557,0.34067 -0.418298,1.33971 -0.734205,8.55721 -0.867061,19.80973 l -0.14682,12.43542 h -1.342977 c -1.255207,0 -1.360802,-0.0519 -1.615691,-0.79375 -0.395891,-1.15226 -0.348705,-21.43235 0.06362,-27.34469 0.186227,-2.6703 0.260887,-4.93249 0.16591,-5.02708 -0.276876,-0.27575 -4.631738,-0.15473 -6.105707,0.16967 -0.741575,0.16321 -2.014869,0.54613 -2.829539,0.85094 l -1.48122,0.5542 1.450314,2.22497 c 1.878142,2.88133 2.665113,4.63101 3.207874,7.13212 0.374071,1.72376 0.392814,2.3098 0.124016,3.87732 -0.540621,3.15265 -2.01721,5.44745 -4.329189,6.7281 -1.208329,0.66931 -1.690566,0.78021 -3.392898,0.78024 -1.63281,3e-5 -2.248823,-0.12983 -3.477024,-0.73298 -1.820664,-0.8941 -3.479591,-2.63975 -4.413875,-4.64459 -0.598082,-1.28342 -0.697981,-1.84749 -0.687644,-3.8828 0.02035,-4.00349 1.302972,-6.83386 4.702244,-10.37635 l 1.832472,-1.90967 -1.52595,-1.6622 C 15.32115,138.93928 11.899868,135.75957 6.4633973,131.00435 -5.3470495,120.67391 -11.945509,112.34862 -15.583681,103.1875 c -2.824377,-7.111936 -3.684703,-13.739814 -2.674425,-20.603543 0.978343,-6.64677 3.789903,-12.206539 8.4067873,-16.624163 2.6142103,-2.501384 4.3857941,-3.699005 7.9788251,-5.393833 5.1684554,-2.437951 10.7464673,-3.696544 16.4126756,-3.703268 6.721946,-0.008 12.308197,1.180569 17.455506,3.71388 3.851328,1.895478 5.222889,2.954698 5.107787,3.944615 -0.124891,1.074111 -0.773552,0.972442 -2.978248,-0.466799 -5.448414,-3.556765 -11.031111,-5.153327 -18.004538,-5.149012 -12.4090615,0.0077 -23.3115826,5.244921 -28.418771,13.651527 -2.597031,4.274797 -3.335009,7.318347 -3.321217,13.697263 0.01172,5.416966 0.427432,8.099156 1.977348,12.757698 3.503501,10.530375 9.3245461,18.104655 23.5449316,30.636385 3.4197394,3.01365 7.4430094,6.75304 8.9405984,8.30975 l 2.722888,2.83038 2.039612,-0.78628 c 2.698472,-1.04027 6.050624,-1.65917 8.641998,-1.59555 2.508703,0.0616 2.297417,0.42735 2.772286,-4.79907 2.05209,-22.58537 6.974056,-40.512857 14.119169,-51.426843 1.837137,-2.806179 5.034552,-6.068621 6.956631,-7.098105 3.749799,-2.008425 10.240513,-2.02153 13.903163,-0.02806 4.009195,2.182077 7.134159,9.30021 8.285353,18.872616 1.219145,10.137412 1.941576,22.486142 2.681955,45.843502 0.09579,3.022 0.254127,5.54396 0.351861,5.60437 0.602623,0.37244 5.492747,-2.7451 7.994705,-5.09677 l 1.611821,-1.515 0.73465,-3.56649 c 0.75497,-3.66513 1.458396,-5.84252 2.364978,-7.32056 0.59287,-0.96659 1.78866,-1.40153 3.859562,-1.40383 1.624681,-0.002 2.394069,0.48924 3.058259,1.95181 0.45256,0.99658 0.497,1.91247 0.52142,10.74672 0.0147,5.31151 0.0929,9.47869 0.17373,9.26041 0.0809,-0.21828 1.35879,-2.83872 2.83982,-5.8232 3.94656,-7.95283 6.6746,-11.73095 9.73088,-13.47646 1.76685,-1.00909 3.01518,-1.20202 5.15956,-0.79741 4.51895,0.85267 5.80884,4.48509 6.08221,17.12792 0.0946,4.3742 0.25256,7.01591 0.42598,7.12309 0.37392,0.2311 2.43549,-2.0896 3.45082,-3.88454 1.18079,-2.08745 3.43186,-7.00718 4.95614,-10.83168 2.1637,-5.42883 4.52006,-9.34239 7.04721,-11.70431 2.22535,-2.07987 4.45348,-2.88015 7.95503,-2.85721 2.00359,0.0131 3.31941,0.40671 4.80767,1.43808 0.87402,0.60569 1.1084,0.66305 1.61076,0.3942 0.87971,-0.47081 3.54271,-0.20602 4.23627,0.42123 1.26945,1.14808 2.07952,3.83767 2.62486,8.71508 0.16271,1.45521 0.39662,8.57718 0.5198,15.8266 0.12319,7.24943 0.30562,13.26208 0.4054,13.36146 0.45278,0.45098 3.47415,-4.52852 5.60162,-9.23198 1.81281,-4.00781 5.61361,-13.21335 6.58316,-15.94442 0.83762,-2.35943 1.32472,-2.89036 2.54456,-2.77349 0.66834,0.064 0.90435,0.22289 0.96522,0.64971 0.11751,0.82399 -1.57596,5.7303 -5.22893,15.14917 -4.73548,12.21004 -6.50189,15.9683 -8.34579,17.75667 -0.95075,0.92212 -0.96255,0.92532 -3.74671,1.01609 -4.28737,0.13979 -5.53496,-0.55392 -7.30132,-4.0598 -1.4421,-2.86231 -1.5901,-3.78283 -1.71889,-10.69077 -0.12961,-6.95218 0.17349,-12.62349 1.00141,-18.73744 0.28661,-2.11655 0.51635,-3.98107 0.51052,-4.14337 -0.0386,-1.07447 -3.66999,8.10075 -7.00406,17.69657 -3.18801,9.17549 -4.51648,12.63733 -5.14904,13.41784 -0.46292,0.57119 -0.67321,0.60508 -3.75449,0.60508 -3.81015,0 -4.39015,-0.25424 -5.584,-2.44773 -1.13885,-2.09244 -1.51592,-4.03909 -1.52257,-7.86046 l -0.006,-3.45014 -0.85891,1.59311 c -1.97169,3.6571 -2.58396,4.09543 -5.72059,4.09543 -5.16419,0 -8.33414,-2.98764 -9.05134,-8.5308 -0.29515,-2.28115 -0.12001,-10.15097 0.30181,-13.56191 0.14092,-1.13951 0.13256,-1.9494 -0.0217,-2.10502 -0.35677,-0.35983 -3.39792,2.83197 -4.87739,5.11899 -1.50619,2.32833 -4.70728,9.36148 -6.3353,13.91937 -1.7857,4.99929 -2.78692,7.45282 -3.43314,8.41297 l -0.57036,0.84744 -2.694731,0.0753 c -2.266354,0.0634 -2.858862,-0.008 -3.727222,-0.45142 -3.007693,-1.53441 -4.136218,-4.98421 -3.966692,-12.12584 0.04923,-2.07388 0.04838,-3.77052 -0.0019,-3.77031 -0.05027,2.1e-4 -1.072933,0.65347 -2.272588,1.45169 -1.199658,0.79823 -3.163162,1.8374 -4.363347,2.30928 -1.200181,0.47187 -2.293532,1.06607 -2.429666,1.32043 -0.137123,0.25623 -0.323075,6.3039 -0.416938,13.56004 l -0.169423,13.09755 -0.638951,0.60101 c -0.576175,0.54196 -0.942361,0.60917 -3.727278,0.68414 -2.276681,0.0613 -3.21384,-0.0101 -3.565895,-0.27167 z M 21.853609,160.85877 c 1.092195,-0.30336 2.459093,-1.70699 3.065465,-3.14786 0.569878,-1.35414 0.489773,-4.08485 -0.17132,-5.84007 -0.559562,-1.48566 -2.491724,-4.8942 -3.449574,-6.08542 l -0.531874,-0.66146 -1.731065,1.82687 c -2.407526,2.54076 -3.374689,4.58252 -3.524718,7.44096 -0.0991,1.88809 -0.031,2.38097 0.472717,3.42152 0.650653,1.34407 1.86381,2.40007 3.378057,2.94045 1.220907,0.4357 1.291069,0.43865 2.492312,0.10501 z M 145.60889,144.00345 c 2.9147,-6.82878 5.71047,-13.02942 6.5753,-14.58309 l 0.64098,-1.15152 -0.73164,-0.76367 c -0.98303,-1.02605 -1.61384,-1.19115 -2.27412,-0.59516 -0.8615,0.77761 -2.31464,3.91301 -3.54158,7.64156 -1.76524,5.36438 -2.35735,7.88522 -3.4466,14.67343 -0.26343,1.64167 0.30171,0.57931 2.77766,-5.22155 z m -74.487201,0.39291 C 71.019449,141.3483 70.422633,119.64582 70.086676,106.75938 69.672153,90.859309 68.922994,85.17141 66.65339,80.692559 c -2.15827,-4.259138 -4.685763,-4.7043 -8.841383,-1.55721 -3.52852,2.67218 -5.736598,5.729724 -9.009941,12.476128 -4.75303,9.796063 -7.571882,21.200443 -9.918855,40.129243 -0.368398,2.97121 -0.669814,5.90387 -0.669814,6.51703 0,1.10982 0.0057,1.11626 1.256771,1.42684 1.830853,0.45452 8.531984,2.49071 13.559895,4.12029 6.832679,2.21451 13.614209,3.74787 16.839234,3.80747 l 1.361109,0.0251 z m 184.875691,22.36778 c -2.17312,-1.07056 -2.14614,-4.94598 0.0417,-5.98417 1.14972,-0.54557 3.14102,-0.57239 4.14009,-0.0558 0.78817,0.40758 1.60716,2.0307 1.60716,3.18517 0,1.13311 -0.82238,2.8021 -1.5094,3.06331 -1.01309,0.38518 -3.30059,0.2737 -4.27953,-0.20855 z m -50.23848,-4.51876 c -3.88619,-1.22391 -5.58742,-8.76179 -3.75766,-16.64964 1.0763,-4.63977 3.22867,-8.42131 7.33945,-12.89478 l 2.90618,-3.16259 0.22053,-17.07804 c 0.35166,-27.233252 0.323,-31.324713 -0.2336,-33.341357 -0.90008,-3.261172 -1.79251,-3.996483 -3.67732,-3.029918 -4.13773,2.121903 -7.49661,8.6457 -8.97737,17.436341 -0.60455,3.588986 -0.94548,4.06439 -2.36853,3.302797 -0.64613,-0.345803 -0.6694,-1.604224 -0.0931,-5.037297 1.42119,-8.466574 6.26931,-16.625462 10.73635,-18.068155 4.67099,-1.508562 8.34495,1.215091 9.85803,7.308138 1.4871,5.988453 2.06975,14.07571 2.12481,29.492471 0.0246,6.87237 0.10047,12.55106 0.16871,12.61931 0.23227,0.23227 5.6556,-4.52629 8.45328,-7.41711 4.74519,-4.90315 9.71296,-11.73184 12.77834,-17.565132 3.31536,-6.308929 6.56643,-15.156006 7.98896,-21.740277 0.76449,-3.538461 0.89516,-3.736427 2.24163,-3.39626 0.6251,0.157924 0.65937,0.260694 0.62352,1.870051 -0.10705,4.806421 -4.79113,18.242641 -8.91853,25.582688 -5.11677,9.09954 -11.03569,16.4992 -18.09718,22.62459 -1.34607,1.16762 -2.44739,2.20233 -2.44739,2.29934 0,0.097 0.73422,0.39633 1.6316,0.66513 3.49764,1.04771 6.45885,3.88744 8.5616,8.21036 1.67696,3.44755 2.35479,5.7841 3.30909,11.4067 1.21653,7.16774 2.28619,10.66964 3.80958,12.47195 1.03613,1.22583 1.62264,1.10548 3.32356,-0.68203 2.38586,-2.50728 4.17873,-6.19552 7.28896,-14.99453 1.17803,-3.33275 2.27827,-6.01875 2.57399,-6.28386 0.61005,-0.54689 1.24098,-0.59031 1.87209,-0.12883 0.42923,0.31386 0.41542,0.47778 -0.22688,2.69423 -0.96028,3.31375 -4.4799,12.79144 -5.71775,15.39692 -1.22291,2.57401 -3.74301,6.06957 -5.14763,7.14018 -0.96613,0.73637 -1.09506,0.76053 -4.0604,0.76053 -2.86091,0 -3.16328,-0.051 -4.59126,-0.77411 -1.68609,-0.85384 -3.56164,-2.69168 -4.36938,-4.28154 -1.02675,-2.02087 -1.89143,-5.41327 -2.83348,-11.11668 -1.52273,-9.21878 -2.23777,-11.63677 -4.26402,-14.41942 -0.84199,-1.15628 -3.65829,-3.37804 -3.93336,-3.10298 -0.15007,0.15008 -0.30864,2.95659 -0.67791,11.99889 -0.31122,7.62051 -0.66019,11.74335 -1.19257,14.08907 -0.74671,3.29011 -2.64165,6.06149 -4.96187,7.25679 -0.88843,0.45768 -1.66331,0.58702 -3.88771,0.64888 -1.52797,0.0425 -3.04687,-0.007 -3.37533,-0.11082 z m 3.13687,-3.25692 c 0.93147,-0.93147 2.04998,-3.68804 2.45864,-6.05929 0.41557,-2.41144 1.05621,-14.88316 0.91059,-17.72708 l -0.0881,-1.7198 -1.13155,1.19063 c -2.69327,2.83388 -5.12409,7.07987 -6.29809,11.00109 -0.57282,1.91325 -0.71291,2.93674 -0.73956,5.40308 -0.0408,3.77885 0.42997,5.34831 2.1588,7.19657 1.3071,1.3974 1.89315,1.55089 2.72924,0.7148 z"
         id="path849" />
    </g>
  </g>
</svg>
